<svg id="264a8c41-8e85-4c72-a3ea-cae72f4d5425" data-name="Слой 1" xmlns="http://www.w3.org/2000/svg" viewBox="0 0 41.07 37.24"><defs><style>.\35 9e54c63-bd76-4098-9c94-e8f803b73534{fill:#374d64;}.aa539997-929a-40b5-9a35-0e2cbac777ea{fill:#c6f4fc;}.c59195ec-e3f5-4a21-879d-3b8f6809c8e4{fill:#fdfdfd;}</style></defs><title>2</title><path class="59e54c63-bd76-4098-9c94-e8f803b73534" d="M376.24,213.25c-0.71,0-1.42,0-2.12,0a0.38,0.38,0,0,0-.45.38,6.12,6.12,0,0,1-5.06,5.07,5.57,5.57,0,0,1-3.11-.23,0.38,0.38,0,0,0-.56.2c-0.7,1.21-1.42,2.41-2.16,3.59-0.19.31-.1,0.43,0.13,0.64a4.81,4.81,0,0,1-1.4,8.14,4.83,4.83,0,0,1-6.34-6,4.63,4.63,0,0,1,3.92-3.31,4.32,4.32,0,0,1,1.82.1,0.42,0.42,0,0,0,.57-0.21c0.72-1.24,1.46-2.46,2.21-3.68a0.33,0.33,0,0,0-.09-0.53,6.22,6.22,0,0,1-.49-9.39,0.35,0.35,0,0,0,.07-0.52c-0.74-1.22-1.48-2.44-2.2-3.68a0.42,0.42,0,0,0-.59-0.16,4.83,4.83,0,1,1,2.92-7.36,4.77,4.77,0,0,1-.86,6.27,0.47,0.47,0,0,0-.1.75q1,1.64,2,3.31a0.32,0.32,0,0,0,.5.17,6.25,6.25,0,0,1,8.82,4.53,0.42,0.42,0,0,0,.5.43c1.37,0,2.74,0,4.11,0a0.41,0.41,0,0,0,.49-0.4,4.83,4.83,0,1,1,0,2.21,0.36,0.36,0,0,0-.43-0.35C377.63,213.26,376.94,213.25,376.24,213.25Z" transform="translate(-347.21 -194.15)"/><path class="59e54c63-bd76-4098-9c94-e8f803b73534" d="M380.07,199a4.83,4.83,0,1,1-4.85-4.86A4.86,4.86,0,0,1,380.07,199Z" transform="translate(-347.21 -194.15)"/><path class="59e54c63-bd76-4098-9c94-e8f803b73534" d="M370.89,226a4.82,4.82,0,1,1,4.8,4.84A4.82,4.82,0,0,1,370.89,226Z" transform="translate(-347.21 -194.15)"/><path class="59e54c63-bd76-4098-9c94-e8f803b73534" d="M352,217.82a4.83,4.83,0,1,1,4.82-4.82A4.81,4.81,0,0,1,352,217.82Z" transform="translate(-347.21 -194.15)"/><path class="aa539997-929a-40b5-9a35-0e2cbac777ea" d="M362.68,212.51a4.82,4.82,0,1,1,4.72,4.83A4.8,4.8,0,0,1,362.68,212.51Z" transform="translate(-347.21 -194.15)"/><path class="aa539997-929a-40b5-9a35-0e2cbac777ea" d="M380.07,212.48a3.39,3.39,0,0,1,6.77,0A3.39,3.39,0,1,1,380.07,212.48Z" transform="translate(-347.21 -194.15)"/><path class="aa539997-929a-40b5-9a35-0e2cbac777ea" d="M359.76,229.9a3.37,3.37,0,1,1,3.39-3.38A3.37,3.37,0,0,1,359.76,229.9Z" transform="translate(-347.21 -194.15)"/><path class="aa539997-929a-40b5-9a35-0e2cbac777ea" d="M359.29,195.61A3.37,3.37,0,1,1,355.9,199,3.39,3.39,0,0,1,359.29,195.61Z" transform="translate(-347.21 -194.15)"/><path class="c59195ec-e3f5-4a21-879d-3b8f6809c8e4" d="M375.23,202.35a3.37,3.37,0,1,1,3.39-3.33A3.36,3.36,0,0,1,375.23,202.35Z" transform="translate(-347.21 -194.15)"/><path class="c59195ec-e3f5-4a21-879d-3b8f6809c8e4" d="M375.69,222.68a3.37,3.37,0,1,1-3.36,3.45A3.38,3.38,0,0,1,375.69,222.68Z" transform="translate(-347.21 -194.15)"/><path class="c59195ec-e3f5-4a21-879d-3b8f6809c8e4" d="M352,216.38a3.39,3.39,0,1,1,3.41-3.32A3.41,3.41,0,0,1,352,216.38Z" transform="translate(-347.21 -194.15)"/></svg>