<svg id="ecc8acbd-a53b-436c-9569-5133ef406731" data-name="Слой 1" xmlns="http://www.w3.org/2000/svg" viewBox="0 0 39.08 32.56"><defs><style>.\39 254b946-8542-4ba7-91e2-9d4dbce157bc{fill:#374d64;}.\31 b2876c0-ee7a-4edf-94d0-d99cb64e3692{fill:#fdfdfd;}.a818b87c-17b0-4e5f-a250-4a1414e43de9{fill:#c6f4fc;}</style></defs><title>1</title><path class="9254b946-8542-4ba7-91e2-9d4dbce157bc" d="M546.32-5.89h17.49a1.86,1.86,0,0,1,2,2.06q0,12.15,0,24.31a1.88,1.88,0,0,1-2,2c-4.3,0-8.6,0-12.9,0-0.36,0-.46.09-0.45,0.45,0,0.67,0,1.33,0,2,0,0.28.08,0.36,0.36,0.36,1,0,2,0,3,0a0.7,0.7,0,0,1,.85.71,0.68,0.68,0,0,1-.83.68H538.8a0.71,0.71,0,1,1,0-1.39c1,0,2,0,3,0a0.29,0.29,0,0,0,.36-0.36c0-.67,0-1.33,0-2,0-.36-0.11-0.45-0.46-0.45-3.39,0-6.78,0-10.18,0h-2.82a1.84,1.84,0,0,1-1.91-1.92q0-12.24,0-24.49a1.88,1.88,0,0,1,2.1-2h17.45Z" transform="translate(-526.78 5.89)"/><path class="1b2876c0-ee7a-4edf-94d0-d99cb64e3692" d="M546.3,15.95q-8.84,0-17.67,0c-0.39,0-.47-0.11-0.47-0.48q0-9.63,0-19.26c0-.56.15-0.71,0.69-0.71h34.71c0.85,0,.91.07,0.91,0.94q0,9.49,0,19c0,0.41-.09.53-0.52,0.53q-8.84,0-17.67,0h0Z" transform="translate(-526.78 5.89)"/><path class="1b2876c0-ee7a-4edf-94d0-d99cb64e3692" d="M546.37,17.37H564c0.36,0,.46.1,0.45,0.45,0,0.85,0,1.7,0,2.54,0,0.59-.14.73-0.72,0.73H529c-0.68,0-.8-0.12-0.8-0.78,0-.85,0-1.7,0-2.54,0-.32.1-0.4,0.41-0.4h17.8Z" transform="translate(-526.78 5.89)"/><path class="1b2876c0-ee7a-4edf-94d0-d99cb64e3692" d="M546.28,25.28c-0.8,0-1.6,0-2.4,0-0.27,0-.37-0.07-0.36-0.35,0-.71,0-1.42,0-2.13a0.25,0.25,0,0,1,.3-0.31h5a0.25,0.25,0,0,1,.31.3c0,0.72,0,1.45,0,2.18,0,0.28-.12.32-0.35,0.31h-2.49Z" transform="translate(-526.78 5.89)"/><path class="9254b946-8542-4ba7-91e2-9d4dbce157bc" d="M549,6.17A7.37,7.37,0,0,1,552,8.53a7.1,7.1,0,0,1,1.48,4.3,0.71,0.71,0,0,1-.8.82H540a0.74,0.74,0,0,1-.84-0.91,7.28,7.28,0,0,1,4.58-6.59,4.37,4.37,0,0,1-1.64-4.21,4.16,4.16,0,0,1,1.57-2.68,4.29,4.29,0,0,1,5.84.43C551.17,1.51,551,3.86,549,6.17Z" transform="translate(-526.78 5.89)"/><path class="a818b87c-17b0-4e5f-a250-4a1414e43de9" d="M546.31,12.22c-1.77,0-3.54,0-5.31,0-0.4,0-.45-0.14-0.38-0.47a5.82,5.82,0,0,1,11.41,0c0.08,0.38,0,.49-0.41.49C549.85,12.21,548.08,12.22,546.31,12.22Z" transform="translate(-526.78 5.89)"/><path class="a818b87c-17b0-4e5f-a250-4a1414e43de9" d="M549.23,2.68a2.91,2.91,0,1,1-5.83-.08A2.91,2.91,0,0,1,549.23,2.68Z" transform="translate(-526.78 5.89)"/></svg>