<svg id="a4d947c2-a0eb-498d-84f6-e057ca59e5b7" data-name="Слой 1" xmlns="http://www.w3.org/2000/svg" viewBox="0 0 38.09 39.01"><defs><style>.\38 ecc6b9e-ac48-4ed9-9d23-3a2729cfceaf{fill:#374d64;}.f11c40ec-8373-4920-9458-6c087249a30c{fill:#374d65;}.\38 ae6c3e2-68e1-496f-9de1-190fc039e3fd{fill:#fff;}.\30 cee3ed3-3d15-40c8-a7fd-a5d5109c50c5{fill:#c6f4fc;}</style></defs><title>4</title><path class="8ecc6b9e-ac48-4ed9-9d23-3a2729cfceaf" d="M741.19,245.06c0-1.9,0-3.79,0-5.69a17,17,0,0,0-2.17-7.82c-0.11-.21-0.18-0.32-0.47-0.18a2.58,2.58,0,0,1-3.28-.79,13.64,13.64,0,0,0-8.55-5.25,14.7,14.7,0,0,0-14.48,5.12,2.8,2.8,0,0,1-3.53.86c-0.25-.14-0.29.05-0.36,0.18a17.36,17.36,0,0,0-2,5.32,18.71,18.71,0,0,0-.33,3.69c0,2.2,0,4.4,0,6.61,0,0.74-.21,1.07-0.69,1.08s-0.72-.33-0.72-1.05c0-2.39,0-4.77,0-7.16a18.22,18.22,0,0,1,2.72-9.48,1,1,0,0,0,.13-0.85,2.46,2.46,0,0,1,.58-2.34,20.37,20.37,0,0,1,27.08-4,18.8,18.8,0,0,1,4.38,4.14,2.53,2.53,0,0,1,.43,2.42,0.51,0.51,0,0,0,0,.46,18.87,18.87,0,0,1,2.59,7.76,53.49,53.49,0,0,1,.11,5.55c0,2.34,0,4.68,0,7a6.07,6.07,0,0,1-6.25,6.3q-3.92,0-7.85,0a0.42,0.42,0,0,0-.54.4,1.82,1.82,0,0,1-1.88,1.49c-1.51,0-3,0-4.54,0a1.88,1.88,0,0,1-2-2c0-.43,0-0.86,0-1.28a1.83,1.83,0,0,1,1.76-1.87c1.65,0,3.3,0,5,0a1.79,1.79,0,0,1,1.7,1.53,0.3,0.3,0,0,0,.35.33c2.72,0,5.44,0,8.17,0a5.09,5.09,0,0,0,4.67-4.77c0-.95,0-1.9,0-2.84s0-1.9,0-2.84h0Z" transform="translate(-704.56 -219.82)"/><path class="f11c40ec-8373-4920-9458-6c087249a30c" d="M707.4,243.78c0-2,0-4,0-6a1.87,1.87,0,0,1,2-2h3.49a1.88,1.88,0,0,1,2,2c0,3.26,0,6.51,0,9.77,0,0.73,0,1.47,0,2.2a1.89,1.89,0,0,1-2,2h-3.58a1.84,1.84,0,0,1-1.93-1.93C707.39,247.82,707.4,245.8,707.4,243.78Z" transform="translate(-704.56 -219.82)"/><path class="8ecc6b9e-ac48-4ed9-9d23-3a2729cfceaf" d="M739.8,243.81q0,3,0,6a1.88,1.88,0,0,1-2,2h-3.48a1.9,1.9,0,0,1-2-2.06q0-5.94,0-11.87a1.91,1.91,0,0,1,2.07-2h3.39a1.89,1.89,0,0,1,2.06,2Q739.81,240.83,739.8,243.81Z" transform="translate(-704.56 -219.82)"/><path class="8ae6c3e2-68e1-496f-9de1-190fc039e3fd" d="M724.4,221.24a17.89,17.89,0,0,1,13.84,6.93,1.18,1.18,0,0,1-.06,1.78,1.26,1.26,0,0,1-1.82-.27,15.22,15.22,0,0,0-10.62-5.94,16.18,16.18,0,0,0-14.5,5.66c-0.14.16-.27,0.34-0.42,0.48a1.24,1.24,0,0,1-1.67,0,1.15,1.15,0,0,1-.11-1.64,18.45,18.45,0,0,1,4.71-4.17A19.61,19.61,0,0,1,724.4,221.24Z" transform="translate(-704.56 -219.82)"/><path class="8ae6c3e2-68e1-496f-9de1-190fc039e3fd" d="M723.79,257.4h-2.15a0.52,0.52,0,0,1-.63-0.63c0-.37,0-0.73,0-1.1a0.52,0.52,0,0,1,.58-0.59h4.48a0.52,0.52,0,0,1,.58.6c0,0.37,0,.73,0,1.1a0.52,0.52,0,0,1-.63.63h-2.24Z" transform="translate(-704.56 -219.82)"/><path class="0cee3ed3-3d15-40c8-a7fd-a5d5109c50c5" d="M713.49,243.83q0,2.89,0,5.78c0,0.63-.12.76-0.74,0.76h-3.26c-0.54,0-.69-0.15-0.7-0.67q0-5.92,0-11.83a0.55,0.55,0,0,1,.66-0.66h3.39c0.5,0,.64.15,0.64,0.67q0,3,0,6h0Z" transform="translate(-704.56 -219.82)"/><path class="0cee3ed3-3d15-40c8-a7fd-a5d5109c50c5" d="M738.41,243.83q0,2.89,0,5.78c0,0.63-.13.76-0.74,0.76h-3.26a0.57,0.57,0,0,1-.72-0.7q0-4.06,0-8.11c0-1.22,0-2.44,0-3.67,0-.55.14-0.67,0.68-0.68h3.3c0.58,0,.71.15,0.71,0.75q0,2.94,0,5.87h0Z" transform="translate(-704.56 -219.82)"/></svg>