<?xml version="1.0" encoding="iso-8859-1"?>
<!-- Generator: Adobe Illustrator 19.0.0, SVG Export Plug-In . SVG Version: 6.00 Build 0)  -->
<svg version="1.1" id="Layer_1" xmlns="http://www.w3.org/2000/svg" xmlns:xlink="http://www.w3.org/1999/xlink" x="0px" y="0px"
	 viewBox="0 0 512 512" style="enable-background:new 0 0 512 512;" xml:space="preserve">
<g>
	<path style="fill:#7a84E8;" d="M239.304,372.87h-89.043c-9.223,0-16.696-7.473-16.696-16.696s7.473-16.696,16.696-16.696h89.043
		c9.223,0,16.696,7.473,16.696,16.696S248.527,372.87,239.304,372.87z"/>
	<path style="fill:#7C84E8;" d="M245.712,334.831L130.869,165.185c-5.169-7.635-3.169-18.017,4.468-23.185
		c7.641-5.173,18.011-3.163,23.185,4.468l114.843,169.647c5.169,7.635,3.169,18.017-4.468,23.185
		C261.244,344.474,250.871,342.449,245.712,334.831z"/>
</g>
<g>
	<path style="fill:#79695A;" d="M205.913,172.522H95.304c-9.223,0-16.696-7.473-16.696-16.696s7.473-16.696,16.696-16.696h110.609
		c9.223,0,16.696,7.473,16.696,16.696S215.136,172.522,205.913,172.522z"/>
	<path style="fill:#79695A;" d="M83.478,439.652C37.446,439.652,0,402.206,0,356.174s37.446-83.478,83.478-83.478
		s83.478,37.446,83.478,83.478S129.51,439.652,83.478,439.652z M83.478,306.087c-27.619,0-50.087,22.468-50.087,50.087
		s22.468,50.087,50.087,50.087s50.087-22.468,50.087-50.087S111.097,306.087,83.478,306.087z"/>
</g>
<path style="fill:#6C5B52;" d="M133.565,356.174c0,27.619-22.468,50.087-50.087,50.087v33.391c46.032,0,83.478-37.446,83.478-83.478
	s-37.446-83.478-83.478-83.478v33.391C111.097,306.087,133.565,328.555,133.565,356.174z"/>
<path style="fill:#7C84E8;" d="M391.235,233.405l-88.599,104.849c-5.899,7.123-16.473,8.014-23.484,2.003
	c-7.125-5.899-8.015-16.473-2.005-23.485l65.336-77.468h-145.14L96.612,366.525c-5.788,7.235-16.25,8.459-23.484,2.783
	c-7.236-5.788-8.459-16.25-2.783-23.485l105.739-133.565c3.227-4.007,8.014-6.344,13.133-6.344h189.217
	C392.57,205.913,400.362,222.497,391.235,233.405z"/>
<g>
	<path style="fill:#515BE0;" d="M391.235,233.405l-88.599,104.849c-5.899,7.123-16.473,8.014-23.484,2.003
		c-7.125-5.899-8.015-16.473-2.005-23.485l65.336-77.468h-69.787v-33.391h105.739C392.57,205.913,400.362,222.497,391.235,233.405z"
		/>
	<path style="fill:#515BE0;" d="M428.522,372.875c-6.755,0-13.119-4.136-15.63-10.837l-92.049-245.462
		c-2.43-6.485-8.712-10.838-15.636-10.838h-43.641c-9.223,0-16.696-7.473-16.696-16.696s7.473-16.696,16.696-16.696h43.641
		c20.766,0,39.609,13.059,46.897,32.505l92.049,245.456c3.239,8.636-1.136,18.261-9.766,21.495
		C432.451,372.532,430.473,372.875,428.522,372.875z"/>
</g>
<path style="fill:#DBE1F1;" d="M272.696,406.261c-27.619,0-50.087-22.468-50.087-50.087s22.468-50.087,50.087-50.087
	s50.087,22.468,50.087,50.087S300.315,406.261,272.696,406.261z"/>
<path style="fill:#D0D5E5;" d="M322.783,356.174c0-27.619-22.468-50.087-50.087-50.087v100.174
	C300.315,406.261,322.783,383.793,322.783,356.174z"/>
<path style="fill:#79695A;" d="M428.522,439.652c-46.032,0-83.478-37.446-83.478-83.478s37.446-83.478,83.478-83.478
	S512,310.142,512,356.174S474.554,439.652,428.522,439.652z M428.522,306.087c-27.619,0-50.087,22.468-50.087,50.087
	s22.468,50.087,50.087,50.087s50.087-22.468,50.087-50.087S456.141,306.087,428.522,306.087z"/>
<path style="fill:#6C5B52;" d="M478.609,356.174c0,27.619-22.468,50.087-50.087,50.087v33.391c46.032,0,83.478-37.446,83.478-83.478
	s-37.446-83.478-83.478-83.478v33.391C456.141,306.087,478.609,328.555,478.609,356.174z"/>
<g>
</g>
<g>
</g>
<g>
</g>
<g>
</g>
<g>
</g>
<g>
</g>
<g>
</g>
<g>
</g>
<g>
</g>
<g>
</g>
<g>
</g>
<g>
</g>
<g>
</g>
<g>
</g>
<g>
</g>
</svg>
