<svg id="Слой_1" data-name="Слой 1" xmlns="http://www.w3.org/2000/svg" viewBox="0 0 183.79 49.06"><defs><style>.cls-1{fill:#f83a42;}.cls-2{fill:#fff;}</style></defs><title>logo_texho</title><path class="cls-1" d="M34,18.71a22.91,22.91,0,0,0,2.43-2.53q1.64-1.76,3.24-3.56c0.29-.33.45-0.27,0.73,0,1.88,1.91,3.79,3.79,5.66,5.69,0.3,0.3.45,0.29,0.74,0,1.77-1.81,3.57-3.6,5.34-5.41,0.27-.28.42-0.35,0.74,0,1.8,1.8,3.66,3.55,5.39,5.43,0.49,0.54.49,0.54,0,1.05L52.92,24.7a0.91,0.91,0,0,0-.3.7c0,2.84-.06,5.67-0.07,8.51,0,0.38-.1.47-0.47,0.47q-5.76,0-11.51,0c-0.33,0-.46-0.06-0.46-0.43,0-2.64-.06-5.28,0-7.92a2,2,0,0,0-.67-1.63c-1.62-1.56-3.2-3.15-4.81-4.73A1.44,1.44,0,0,0,34,19.14V18.71Z" transform="translate(-34.01 -2.22)"/><path class="cls-1" d="M47.61,2.22a0.46,0.46,0,0,0,.42.17,6.23,6.23,0,0,1,4.5,7.21,6.17,6.17,0,0,1-12.21-.16A6.34,6.34,0,0,1,45,2.34a0.36,0.36,0,0,0,.33-0.12h2.25ZM46.46,13.59a4.94,4.94,0,0,0,4.9-5.07,4.9,4.9,0,1,0-9.79-.11A4.92,4.92,0,0,0,46.46,13.59Z" transform="translate(-34.01 -2.22)"/><path class="cls-2" d="M214.79,2.22c0,0.14.17,0.09,0.27,0.11,1.85,0.32,2.89,1.79,2.73,3.88a3.33,3.33,0,0,1-3.18,2.74,3.39,3.39,0,0,1-3.35-2.87,3.34,3.34,0,0,1,2.57-3.72,0.42,0.42,0,0,0,.42-0.14h0.54Zm-0.26,6a2.66,2.66,0,1,0-2.6-2.67A2.67,2.67,0,0,0,214.53,8.27Z" transform="translate(-34.01 -2.22)"/><path class="cls-2" d="M168.15,24.8a1,1,0,0,0-.1.64c0,2.69,0,5.39,0,8.08,0,0.41-.1.54-0.53,0.54-1.66,0-3.32,0-5,0-0.38,0-.52-0.07-0.52-0.49q0-11.91,0-23.82c0-.38.08-0.53,0.5-0.52q2.52,0,5,0c0.42,0,.5.14,0.49,0.52,0,2.64,0,5.28,0,7.92v0.58l0.12,0.06a12.18,12.18,0,0,1,6.15-7.77,12,12,0,0,1,9.87-.77,12.54,12.54,0,0,1-1.44,24,11.88,11.88,0,0,1-6.23-.24,12.41,12.41,0,0,1-5.31-3.28A12.76,12.76,0,0,1,168.15,24.8Zm7.28-2.22v0c2.28,0,4.57,0,6.85,0,0.37,0,.51-0.09.47-0.47a7.7,7.7,0,0,1,0-1.23c0-.38-0.11-0.48-0.48-0.47-2.18,0-4.35,0-6.53,0-2.41,0-4.82,0-7.23,0-0.37,0-.51.09-0.48,0.48a8.42,8.42,0,0,1,0,1.28c0,0.39.13,0.47,0.49,0.46C170.83,22.58,173.13,22.58,175.43,22.58Z" transform="translate(-34.01 -2.22)"/><path class="cls-2" d="M72.35,9.27c3.19,0,6.39,0,9.58,0,0.41,0,.5.11,0.49,0.51,0,1.68,0,3.36,0,5,0,0.44-.14.52-0.54,0.51-1.8,0-3.61,0-5.41,0a0.41,0.41,0,0,0-.51.5c0,1.16,0,2.32,0,3.48q0,6-.08,11.94c0,0.82,0,1.64,0,2.46a0.35,0.35,0,0,1-.43.42q-3.32,0-6.64,0a0.32,0.32,0,0,1-.39-0.39c0-.87,0-1.75,0-2.62,0-5-.06-10.1-0.06-15.15,0-.52-0.14-0.65-0.65-0.64-1.64,0-3.28,0-4.93,0a0.38,0.38,0,0,1-.47-0.47c0-1.7,0-3.39,0-5.09,0-.42.13-0.49,0.51-0.49C66,9.28,69.16,9.27,72.35,9.27Z" transform="translate(-34.01 -2.22)"/><path class="cls-2" d="M149.34,21.46c0-1.66,0-3.32,0-5,0-.44.14-0.5,0.52-0.44a9.25,9.25,0,0,1,7.61,7.3,9.16,9.16,0,1,1-18.14,2.46,9,9,0,0,1,5.57-9.12,9.8,9.8,0,0,1,2.3-.65c0.42-.06.55,0.06,0.54,0.5,0,3.27,0,6.53,0,9.8,0,0.49.07,0.68,0.62,0.65,1-.05,1,0,1-1Q149.34,23.71,149.34,21.46Z" transform="translate(-34.01 -2.22)"/><path class="cls-2" d="M121.08,24.91c0-2.87,0-5.75,0-8.62,0-.36.07-0.48,0.46-0.48,1.8,0,3.61,0,5.41,0,0.43,0,.49.15,0.48,0.52,0,1.77,0,3.53,0,5.3,0,0.79,0,.79.78,0.78s0.77,0,.77-0.77c0-1.78,0-3.57,0-5.35,0-.38.1-0.47,0.47-0.47,1.82,0,3.64,0,5.46,0,0.35,0,.49,0,0.49.45q0,8.67,0,17.35c0,0.37-.13.44-0.46,0.44-1.8,0-3.61,0-5.41,0-0.43,0-.5-0.16-0.5-0.52,0-1.82-.1-3.64-0.12-5.45,0-.37-0.09-0.48-0.47-0.48-1,0-1,0-1,1,0,1.66,0,3.32,0,5,0,0.37-.12.44-0.46,0.43-1.82,0-3.64,0-5.46,0-0.37,0-.43-0.12-0.43-0.45C121.09,30.69,121.08,27.8,121.08,24.91Z" transform="translate(-34.01 -2.22)"/><path class="cls-2" d="M82.94,24.94c0-2.84,0-5.67,0-8.51,0-.41.09-0.54,0.52-0.53,2.69,0,5.39,0,8.08,0,0.36,0,.49.08,0.48,0.47q0,2.19,0,4.39a0.36,0.36,0,0,1-.46.44c-0.52,0-1,0-1.55,0-0.35,0-.44.13-0.44,0.47,0,0.93,0,.93.92,0.93,1.21,0,2.43,0,3.64,0,0.36,0,.5.07,0.49,0.46q0,2.06,0,4.12c0,0.38-.12.48-0.48,0.47-1.37,0-2.75,0-4.12,0a0.36,0.36,0,0,0-.45.45c0,0.94,0,.94.91,0.94l6.47,0c0.32,0,.47,0,0.47.42,0,1.39,0,2.78,0,4.18a0.34,0.34,0,0,1-.42.42q-6.83,0-13.65,0c-0.4,0-.42-0.17-0.42-0.48Q82.94,29.28,82.94,24.94Z" transform="translate(-34.01 -2.22)"/><path class="cls-2" d="M196.63,21.65c0-4,0-8,0-11.94,0-.4.07-0.54,0.52-0.54q6.16,0,12.31,0c0.39,0,.52.07,0.51,0.49,0,1.62,0,3.25,0,4.87,0,0.34-.08.46-0.44,0.46-2.12,0-4.24.06-6.37,0.07-0.44,0-.53.15-0.52,0.55q0,5,0,10c0,2.71,0,5.42,0,8.13,0,0.34-.08.45-0.44,0.45-1.68,0-3.35,0-5,0-0.42,0-.5-0.12-0.5-0.51C196.64,29.64,196.63,25.64,196.63,21.65Z" transform="translate(-34.01 -2.22)"/><path class="cls-2" d="M101.63,34c0.41-.84.77-1.61,1.15-2.37,1-2.06,2-4.12,3.09-6.16a1.21,1.21,0,0,0,0-1.24q-2-3.86-3.9-7.72c-0.09-.19-0.17-0.38-0.29-0.63H104c1.37,0,2.75,0,4.12,0a0.38,0.38,0,0,1,.48.47c0,1.46,0,2.93,0,4.39,0,0.51.22,0.51,0.6,0.52s0.6-.06.59-0.54c0-1.46,0-2.93,0-4.39,0-.3,0-0.45.4-0.44,2.21,0,4.42,0,6.62,0a0.68,0.68,0,0,1-.16.59q-2,4-4,7.93a1.08,1.08,0,0,0,0,1.09c1.34,2.65,2.65,5.32,4,8l0.22,0.46a0.24,0.24,0,0,1-.29.11c-2.12,0-4.25,0-6.37,0a0.36,0.36,0,0,1-.44-0.44c0-1.52,0-3,0-4.55,0-.59-0.34-0.43-0.66-0.46s-0.54,0-.53.47c0,1.52,0,3,0,4.55,0,0.23,0,.44-0.33.44C106.06,34,103.91,34,101.63,34Z" transform="translate(-34.01 -2.22)"/><path class="cls-1" d="M120.33,49.67a52.05,52.05,0,0,1,3.08-4.26c0.79-1,1.56-2,2.34-3a2.14,2.14,0,0,1,1.66-.35,0.26,0.26,0,0,1,.09.28q0,4.25,0,8.51a0.25,0.25,0,0,1-.3.31c-1.08.06-1.09,0.07-1.08-1,0-2.12-.08-4.24.1-6.37-0.2,0-.2.12-0.26,0.21-1.55,2.45-3.46,4.62-5.19,6.93a0.63,0.63,0,0,1-.62.2c-1.12,0-1.12,0-1.12-1.09,0-2.5,0-5,0-7.49,0-.4.07-0.56,0.51-0.54,0.87,0,.88,0,0.87.87,0,2.09.06,4.17-.09,6.26C120.32,49.29,120.33,49.4,120.33,49.67Z" transform="translate(-34.01 -2.22)"/><path class="cls-1" d="M137.21,43.81c-1.61,2.5-3.56,4.71-5.32,7.06a1,1,0,0,1-1,.29c-0.82,0-.82,0-0.82-0.79,0-2.59,0-5.17,0-7.76,0-.44.09-0.63,0.55-0.55a1.18,1.18,0,0,0,.37,0c0.37-.06.48,0.09,0.47,0.47,0,2.19.06,4.39-.1,6.58,0,0.14,0,.27,0,0.44a0.71,0.71,0,0,0,.32-0.37c1.59-2.42,3.47-4.61,5.22-6.91a1.3,1.3,0,0,1,1.09-.21c0.44-.09.56,0.09,0.55,0.54q0,4,0,8.08c0,0.4-.1.51-0.5,0.5-0.89,0-.89,0-0.89-0.91C137.18,48.11,137.09,46,137.21,43.81Z" transform="translate(-34.01 -2.22)"/><path class="cls-1" d="M83.1,51.28a5,5,0,0,1-4.31-1.93,4.65,4.65,0,0,1,3.1-7.28,6.17,6.17,0,0,1,4.11.48,4.23,4.23,0,0,1,2.35,4.27,4.3,4.3,0,0,1-2.8,4A5.9,5.9,0,0,1,83.1,51.28Zm0-1a3.69,3.69,0,1,0-3.62-3.67A3.55,3.55,0,0,0,83.15,50.31Z" transform="translate(-34.01 -2.22)"/><path class="cls-1" d="M104.62,51.28a5,5,0,0,1-4.27-1.9,4.65,4.65,0,0,1,3.09-7.32,6.17,6.17,0,0,1,4.11.49,4.23,4.23,0,0,1,2.34,4.28,4.29,4.29,0,0,1-2.82,4A5.87,5.87,0,0,1,104.62,51.28Zm0.11-8.36a3.69,3.69,0,1,0,3.61,3.68A3.53,3.53,0,0,0,104.72,42.92Z" transform="translate(-34.01 -2.22)"/><path class="cls-1" d="M67.75,46.61c0-1.37,0-2.75,0-4.12,0-.36.1-0.44,0.45-0.44,1,0,1,0,1,1,0,0.82,0,1.64,0,2.46a0.31,0.31,0,0,0,.38.39c1.57,0,3.14,0,4.71,0,0.36,0,.4-0.13.39-0.43,0-1,0-2,0-3.05,0-.31.09-0.38,0.39-0.39,1.1,0,1.1,0,1.1,1.07,0,2.5,0,5,0,7.5,0,0.44-.1.58-0.55,0.56-0.94,0-.94,0-0.94-1s0-1.93,0-2.89c0-.29-0.06-0.4-0.38-0.4-1.57,0-3.14,0-4.71,0-0.36,0-.4.14-0.4,0.44,0,1.12,0,2.25,0,3.37,0,0.32-.07.43-0.41,0.43-1.08,0-1.08,0-1.08-1.08S67.75,47.77,67.75,46.61Z" transform="translate(-34.01 -2.22)"/><path class="cls-1" d="M166.49,46.58c0-1.37,0-2.75,0-4.12,0-.32.07-0.43,0.41-0.42q3.67,0,7.33,0c0.33,0,.42.09,0.41,0.42q0,4.15,0,8.3c0,0.38-.14.43-0.46,0.42-1,0-1,0-1-1,0-2.21,0-4.42,0-6.64a0.38,0.38,0,0,0-.48-0.47c-1.39,0-2.78,0-4.17,0-0.41,0-.54.08-0.54,0.52,0,2.35,0,4.71,0,7.06,0,0.45-.11.57-0.56,0.56-0.94,0-.94,0-0.94-1V46.58Z" transform="translate(-34.01 -2.22)"/><path class="cls-1" d="M97.63,46.61c0,1.37,0,2.75,0,4.12,0,0.35-.1.44-0.44,0.44-1,0-1,0-1-1,0-2.18,0-4.35,0-6.53,0-.51-0.15-0.62-0.63-0.6-0.87,0-1.75,0-2.62,0-0.44,0-.52.14-0.52,0.54a33.89,33.89,0,0,1-.12,4.7,3.1,3.1,0,0,1-2.63,2.95c-0.63.13-.77,0-0.8-0.65A0.24,0.24,0,0,1,89,50.26c1.41-.33,1.73-1.44,1.86-2.67a44.46,44.46,0,0,0,.08-5c0-.51.16-0.6,0.62-0.59,1.84,0,3.67,0,5.51,0,0.4,0,.55.08,0.54,0.52C97.61,43.9,97.63,45.26,97.63,46.61Z" transform="translate(-34.01 -2.22)"/><path class="cls-1" d="M194.11,51.16l1.67-4c0.66-1.57,1.34-3.14,2-4.72a0.59,0.59,0,0,1,.67-0.43c1.31,0,1.31,0,1.84,1.23l3.13,7.36c0.06,0.14.11,0.29,0.2,0.52h-1.41a0.34,0.34,0,0,1-.31-0.31c-0.31-.72-0.63-1.43-0.91-2.16a0.5,0.5,0,0,0-.55-0.37q-1.6,0-3.21,0a0.49,0.49,0,0,0-.54.39c-0.26.7-.58,1.38-0.84,2.08a0.5,0.5,0,0,1-.59.39C194.88,51.14,194.53,51.16,194.11,51.16Zm4.7-7.9c-0.42,1.31-1,2.53-1.51,3.77-0.1.25-.14,0.38,0.21,0.38,0.89,0,1.78,0,2.67,0,0.18,0,.33,0,0.22-0.26C199.87,45.86,199.27,44.6,198.81,43.27Z" transform="translate(-34.01 -2.22)"/><path class="cls-1" d="M57.33,51.16c1.12-1.48,2.16-2.88,3.22-4.27a0.46,0.46,0,0,0,0-.68c-0.9-1.18-1.77-2.37-2.64-3.56l-0.42-.6H59a0.46,0.46,0,0,1,.38.32c0.71,1,1.41,2,2.1,3,0.18,0.27.26,0.25,0.43,0,0.67-1,1.38-1.95,2.05-2.93a0.81,0.81,0,0,1,.83-0.42c0.36,0,.73,0,1.2,0C65,43.43,64,44.74,63,46a0.65,0.65,0,0,0,0,1C64,48.33,65,49.7,66.13,51.16H64.52a0.5,0.5,0,0,1-.37-0.34c-0.76-1-1.52-2.07-2.26-3.11-0.2-.28-0.28-0.26-0.47,0-0.68,1-1.4,2-2.07,3.05a0.76,0.76,0,0,1-.78.4C58.19,51.14,57.82,51.16,57.33,51.16Z" transform="translate(-34.01 -2.22)"/><path class="cls-1" d="M193.47,51.16c-0.6,0-1.07,0-1.55,0a0.46,0.46,0,0,1-.4-0.29c-0.76-1-1.52-2.07-2.26-3.12-0.19-.27-0.29-0.38-0.53,0-0.68,1-1.41,2.06-2.1,3.09a0.61,0.61,0,0,1-.6.33c-0.41,0-.82,0-1.26,0a0.83,0.83,0,0,1,.28-0.49c0.93-1.24,1.85-2.49,2.8-3.71a0.55,0.55,0,0,0,0-.81c-1-1.32-2-2.66-3-4.09h1.61a0.43,0.43,0,0,1,.34.3c0.7,1,1.4,2,2.08,3,0.18,0.26.25,0.38,0.49,0,0.65-1,1.36-1.92,2-2.89a0.81,0.81,0,0,1,.83-0.43c0.37,0,.74,0,1.22,0l-1.61,2.08c-0.51.66-1,1.34-1.55,2a0.51,0.51,0,0,0,0,.77C191.3,48.26,192.34,49.66,193.47,51.16Z" transform="translate(-34.01 -2.22)"/><path class="cls-1" d="M49.86,46.58c0-1.37,0-2.75,0-4.12,0-.31.05-0.43,0.4-0.43,1.78,0,3.57,0,5.35,0,0.46,0,.37.25,0.37,0.51s0.08,0.52-.37.51c-1.27,0-2.53,0-3.8,0-0.38,0-.49.1-0.47,0.48,0,0.66,0,1.32,0,2,0,0.37.12,0.44,0.45,0.43,1.18,0,2.36,0,3.53,0,0.43,0,.43.18,0.44,0.5s-0.06.5-.46,0.49c-1.18,0-2.36,0-3.53,0-0.36,0-.45.1-0.44,0.45,0,0.8,0,1.61,0,2.41,0,0.4.13,0.47,0.49,0.46,1.32,0,2.64,0,4,0,0.4,0,.46.14,0.46,0.49s0,0.54-.48.53c-1.82,0-3.64,0-5.46,0-0.4,0-.46-0.14-0.45-0.49C49.87,49.33,49.86,48,49.86,46.58Z" transform="translate(-34.01 -2.22)"/><path class="cls-1" d="M177.31,46.58c0-1.37,0-2.75,0-4.12,0-.31.06-0.43,0.4-0.43,1.78,0,3.57,0,5.35,0,0.46,0,.37.25,0.37,0.51s0.08,0.52-.37.51c-1.27,0-2.53,0-3.8,0-0.38,0-.49.1-0.47,0.48,0,0.66,0,1.32,0,2,0,0.37.12,0.44,0.46,0.43,1.18,0,2.36,0,3.53,0,0.43,0,.43.18,0.44,0.5s-0.06.49-.46,0.49c-1.18,0-2.36,0-3.53,0-0.36,0-.45.11-0.44,0.45,0,0.8,0,1.61,0,2.41,0,0.4.13,0.47,0.49,0.46,1.3,0,2.6,0,3.91,0,0.39,0,.54.07,0.52,0.49s0,0.53-.49.53c-1.82,0-3.64,0-5.46,0-0.4,0-.46-0.14-0.45-0.49C177.32,49.33,177.31,48,177.31,46.58Z" transform="translate(-34.01 -2.22)"/><path class="cls-1" d="M161.85,51.27a6.6,6.6,0,0,1-4-1,4.38,4.38,0,0,1,0-7.17A7.53,7.53,0,0,1,163.18,42a5.43,5.43,0,0,1,1.25.26,0.2,0.2,0,0,1,.16.3c-0.17.68-.24,0.73-0.94,0.57a6.69,6.69,0,0,0-3.49.08,3.44,3.44,0,0,0-2.57,3.51,3.4,3.4,0,0,0,2.76,3.35A6.65,6.65,0,0,0,164,50c0.55-.17.46,0.25,0.59,0.49s0,0.43-.3.5A9.44,9.44,0,0,1,161.85,51.27Z" transform="translate(-34.01 -2.22)"/><path class="cls-1" d="M146.9,42.08c1.64-.1,1.65-0.1,2.41,1.23s1.61,2.68,2.32,4.17L153.22,44l0.35-.78c0.59-1.29.6-1.29,2.1-1.11l-2.3,4.53a25.36,25.36,0,0,1-1.6,2.84,3.7,3.7,0,0,1-3.58,1.79c-0.14,0-.44.12-0.35-0.2s-0.18-.83.39-0.81a2.54,2.54,0,0,0,2.34-1.33,0.71,0.71,0,0,0,0-.88c-1.12-1.78-2.21-3.58-3.31-5.37Z" transform="translate(-34.01 -2.22)"/><path class="cls-1" d="M44.51,42.06c1.27,0,2.53,0,3.8,0,0.44,0,.4.22,0.39,0.49s0.09,0.57-.4.55c-0.85,0-1.71,0-2.57,0-0.39,0-.51.09-0.51,0.5,0,2.34,0,4.67,0,7,0,0.45-.07.62-0.57,0.6-0.92,0-.92,0-0.92-0.92,0-2.23,0-4.46,0-6.69,0-.41-0.12-0.51-0.51-0.49-0.78,0-1.57,0-2.35,0-0.38,0-.62,0-0.62-0.51s0.18-.54.59-0.53C42.09,42.08,43.3,42.06,44.51,42.06Z" transform="translate(-34.01 -2.22)"/><path class="cls-1" d="M111.76,46.58c0-1.37,0-2.75,0-4.12,0-.32.07-0.43,0.41-0.42,1.73,0,3.46,0,5.19,0,0.44,0,.43.2,0.43,0.51s0,0.52-.44.51c-1.21,0-2.43,0-3.64,0-0.38,0-.48.1-0.47,0.48,0,2.37,0,4.74,0,7.12,0,0.45-.13.56-0.56,0.55-0.93,0-.93,0-0.93-1V46.58Z" transform="translate(-34.01 -2.22)"/><path class="cls-2" d="M213.13,5.56a3.18,3.18,0,0,1,0-.37,3.92,3.92,0,0,1,.11-1.45,5,5,0,0,1,2.42.22,1,1,0,0,1,.13,1.48c-0.17.18-.19,0.25,0,0.45a2.57,2.57,0,0,1,.29,1.39c0,0.2-.21.15-0.33,0.14s-0.5.13-.56-0.22,0-.43-0.06-0.64a0.63,0.63,0,0,0-.21-0.47A0.78,0.78,0,0,0,214.17,6c-0.22.07-.09,0.31-0.11,0.47a1.49,1.49,0,0,0,0,.43c0.08,0.47-.14.58-0.57,0.54-0.27,0-.38-0.08-0.37-0.37C213.14,6.56,213.13,6.06,213.13,5.56Zm0.94-.72c0,0.29-.09.58,0.36,0.55s0.71-.1.71-0.58-0.31-.47-0.65-0.51C214,4.24,214,4.57,214.06,4.83Z" transform="translate(-34.01 -2.22)"/></svg>