<svg id="c2b13ae2-0bc6-422f-8b15-3c83305ae667" data-name="Слой 1" xmlns="http://www.w3.org/2000/svg" viewBox="0 0 32.58 33.03"><defs><style>.\32 a073cf4-37ed-4ea6-97a2-9047540e2aca{fill:#374d64;}.b3777ce0-0cd8-4825-a08c-010efb7aba8d{fill:#fff;}.f9e8827d-9f1f-428a-b517-f639c6465599{fill:#c6f4fc;}.db13d105-93e0-44c9-b4ca-7b9baeb8c9ea{fill:#fbfcfc;}.\32 6e7ca79-ef86-4155-810b-7a4e9e4b328b{fill:#fcfcfc;}.\37 954e1e4-071f-4473-bf1a-34512920c608{fill:#384d65;}.\39 f2f2d64-488a-4e49-8f5b-ec12124735b7{fill:#374d65;}</style></defs><title>3</title><path class="2a073cf4-37ed-4ea6-97a2-9047540e2aca" d="M897.74,111.46H883.51a1.8,1.8,0,0,1-2-2q0-9.1,0-18.21a1.82,1.82,0,0,1,2-2h2c0.68,0,.57.07,0.57-0.59,0-2.74,0-5.48,0-8.22a1.81,1.81,0,0,1,2-2h19.49a1.8,1.8,0,0,1,2,2c0,2.8,0,5.6,0,8.4,0,0.36.08,0.48,0.45,0.47,0.72,0,1.44,0,2.16,0a1.79,1.79,0,0,1,1.91,1.91q0,9.19,0,18.38a1.79,1.79,0,0,1-1.89,1.89H897.74Z" transform="translate(-881.5 -78.43)"/><path class="b3777ce0-0cd8-4825-a08c-010efb7aba8d" d="M911.77,110.09h-28l0.4-.51,6.78-8.38a0.83,0.83,0,0,0,.28-0.71,0.65,0.65,0,0,0-.48-0.53,0.7,0.7,0,0,0-.78.28l-2.69,3.33L882.88,109V91.61a1,1,0,0,1,.41.28L895.7,102a3,3,0,0,0,4.16,0L912.18,92l0.52-.42V108.9a0.25,0.25,0,0,1-.21-0.18l-6.7-8.28c-0.43-.53-0.82-0.66-1.18-0.38s-0.34.67,0.11,1.23l6.78,8.38A0.89,0.89,0,0,1,911.77,110.09Z" transform="translate(-881.5 -78.43)"/><path class="f9e8827d-9f1f-428a-b517-f639c6465599" d="M897.79,79.79h9.68c0.63,0,.74.11,0.74,0.74q0,6.3,0,12.59a0.64,0.64,0,0,1-.26.56l-9.1,7.44a1.6,1.6,0,0,1-2.14,0l-9.09-7.44a0.64,0.64,0,0,1-.26-0.56q0-6.32,0-12.64c0-.58.12-0.7,0.7-0.7h9.72Z" transform="translate(-881.5 -78.43)"/><path class="db13d105-93e0-44c9-b4ca-7b9baeb8c9ea" d="M883.93,90.65h1.88c0.18,0,.22.09,0.21,0.25,0,0.45,0,.91,0,1.46Z" transform="translate(-881.5 -78.43)"/><path class="26e7ca79-ef86-4155-810b-7a4e9e4b328b" d="M911.64,90.66l-2.09,1.7c0-.56,0-1,0-1.52a0.16,0.16,0,0,1,.18-0.19h1.91Z" transform="translate(-881.5 -78.43)"/><path class="7954e1e4-071f-4473-bf1a-34512920c608" d="M897.81,84.76h5.48a0.74,0.74,0,0,1,.85.59,0.72,0.72,0,0,1-.84.78H892.4a2,2,0,0,1-.48,0,0.61,0.61,0,0,1-.49-0.61,0.64,0.64,0,0,1,.43-0.65,1.28,1.28,0,0,1,.52-0.06h5.43Z" transform="translate(-881.5 -78.43)"/><path class="9f2f2d64-488a-4e49-8f5b-ec12124735b7" d="M897.78,90.66h-5.43a0.85,0.85,0,0,1-.79-0.3,0.62,0.62,0,0,1-.07-0.67,0.67,0.67,0,0,1,.64-0.4h11.26a0.68,0.68,0,0,1,.77.67,0.69,0.69,0,0,1-.76.68h-5.61Z" transform="translate(-881.5 -78.43)"/><path class="2a073cf4-37ed-4ea6-97a2-9047540e2aca" d="M897.8,95.18h-4.68a0.69,0.69,0,0,1-.7-1,0.65,0.65,0,0,1,.62-0.35h9.5a0.66,0.66,0,0,1,.72.66,0.68,0.68,0,0,1-.72.67H897.8Z" transform="translate(-881.5 -78.43)"/></svg>