<svg id="2dc488f1-8d19-441a-832d-d4bb979b2811" data-name="Слой 1" xmlns="http://www.w3.org/2000/svg" viewBox="0 0 34.4 30.36"><defs><style>.\34 21c43a0-4f4d-4604-ac4b-2a8c74c6a73d{fill:#374d64;}.b4c05b62-dce7-486a-9369-40f44fb1e8e8{fill:#fdfdfd;}.afbe92ec-546b-45e4-93e4-74cefce3b721{fill:#c6f4fc;}.f10abd48-0356-4d06-8510-d3a8e683fe18{fill:#374d65;}</style></defs><title>6</title><path class="421c43a0-4f4d-4604-ac4b-2a8c74c6a73d" d="M473.57,487.64h15.17a1.82,1.82,0,0,1,2,2q0,13,0,26c0,0.17,0,.35,0,0.52a1.79,1.79,0,0,1-1.85,1.8H458.32a1.79,1.79,0,0,1-2-2q0-13.23,0-26.47a1.79,1.79,0,0,1,1.93-1.93h15.3Z" transform="translate(-456.33 -487.64)"/><path class="b4c05b62-dce7-486a-9369-40f44fb1e8e8" d="M473.54,494.34q7.67,0,15.35,0c0.41,0,.49.12,0.49,0.51q0,10.57,0,21.14c0,0.57-.12.68-0.69,0.69s-0.84,0-1.26,0-0.35-.06-0.31-0.34a7.85,7.85,0,0,0,0-1.78,1.48,1.48,0,0,0-1-1.36,2.09,2.09,0,0,1-1.49-1.76,2.37,2.37,0,0,1,.42-1.52,1.37,1.37,0,0,0-.06-1.77l-0.89-1.23a1.39,1.39,0,0,0-1.57-.57,2.72,2.72,0,0,1-1,.11,2,2,0,0,1-1.85-2,1.46,1.46,0,0,0-1.25-1.59l-1.37-.44a1.34,1.34,0,0,0-1.5.42c-0.11.12-.21,0.25-0.32,0.36a2,2,0,0,1-3,0c-0.1-.1-0.19-0.22-0.29-0.33a1.41,1.41,0,0,0-.73-0.45,5.76,5.76,0,0,0-3.06,1,1.59,1.59,0,0,0-.31.89,2.06,2.06,0,0,1-2.81,2,1.41,1.41,0,0,0-1.63.6c-0.29.43-.61,0.85-0.92,1.27a1.36,1.36,0,0,0,0,1.63c0.92,1.49.51,2.7-1.12,3.38a1.43,1.43,0,0,0-.94,1.3,11.09,11.09,0,0,0,0,1.87c0,0.22,0,.28-0.26.28h-1.79c-0.54,0-.67-0.12-0.67-0.66q0-5.1,0-10.2c0-3.68,0-7.35,0-11,0-.34.08-0.43,0.43-0.43h15.43Z" transform="translate(-456.33 -487.64)"/><path class="afbe92ec-546b-45e4-93e4-74cefce3b721" d="M482.41,516.67c-0.76,0-1.51,0-2.27,0-0.25,0-.32-0.07-0.28-0.33a6.21,6.21,0,0,0-12.22-2.24,5.69,5.69,0,0,0,0,2.17c0.06,0.3,0,.4-0.33.4q-2.2,0-4.4,0a3.56,3.56,0,0,1-1.09-.4,0.18,0.18,0,0,1-.09-0.14c0-.51,0-1,0-1.53a0.36,0.36,0,0,1,.33-0.24,3.41,3.41,0,0,0,2.14-2.51,3.47,3.47,0,0,0-.51-2.54,0.41,0.41,0,0,1,0-.53,1.78,1.78,0,0,1,1.94-1.06,3.08,3.08,0,0,0,3.47-2.91,0.87,0.87,0,0,1,.67-0.79,1.47,1.47,0,0,1,1.8.34,3.22,3.22,0,0,0,4.76-.37,0.47,0.47,0,0,1,.66-0.17,0.44,0.44,0,0,0,.13,0,1.47,1.47,0,0,1,1.35,1.39,3.16,3.16,0,0,0,3.85,2.47,0.85,0.85,0,0,1,1,.4,1.43,1.43,0,0,1,.24,1.77,3.22,3.22,0,0,0,1.79,4.42,0.61,0.61,0,0,1,.45.71,4.21,4.21,0,0,0,0,.44,1.05,1.05,0,0,1-1.26,1.21h-2.14Z" transform="translate(-456.33 -487.64)"/><path class="afbe92ec-546b-45e4-93e4-74cefce3b721" d="M473.53,493c-5.1,0-10.2,0-15.3,0-0.47,0-.58-0.14-0.56-0.58,0-.91,0-1.83,0-2.75,0-.6.11-0.71,0.71-0.71h30.16c0.74,0,.81.07,0.81,0.83,0,0.92,0,1.83,0,2.75,0,0.37-.11.45-0.46,0.45H473.53Z" transform="translate(-456.33 -487.64)"/><path class="b4c05b62-dce7-486a-9369-40f44fb1e8e8" d="M473.75,516.67c-1.42,0-2.85,0-4.27,0a0.44,0.44,0,0,1-.51-0.43,4.88,4.88,0,1,1,9.58-.07,0.48,0.48,0,0,1-.57.5C476.57,516.65,475.16,516.67,473.75,516.67Z" transform="translate(-456.33 -487.64)"/><path class="f10abd48-0356-4d06-8510-d3a8e683fe18" d="M481.11,489.88a1.08,1.08,0,0,1,1.12,1.08,1.11,1.11,0,1,1-2.21,0A1.08,1.08,0,0,1,481.11,489.88Z" transform="translate(-456.33 -487.64)"/><path class="f10abd48-0356-4d06-8510-d3a8e683fe18" d="M487.35,489.88a1.09,1.09,0,0,1,1.13,1.07,1.1,1.1,0,0,1-1.11,1.14,1.08,1.08,0,0,1-1.1-1.1A1.06,1.06,0,0,1,487.35,489.88Z" transform="translate(-456.33 -487.64)"/><path class="f10abd48-0356-4d06-8510-d3a8e683fe18" d="M485.35,491a1.1,1.1,0,1,1-1.08-1.12A1.08,1.08,0,0,1,485.35,491Z" transform="translate(-456.33 -487.64)"/></svg>