<svg id="df8e4721-d760-473e-a338-3ba36535965b" data-name="Слой 1" xmlns="http://www.w3.org/2000/svg" viewBox="0 0 43.58 35.4"><defs><style>.\34 2edb8d7-0463-4b09-9b43-f5e29f772606{fill:#374d64;}.\37 6e6ea89-73f3-413f-84eb-fe7713cd141c{fill:#fdfdfd;}.e93ae0b9-378e-4c56-b9a6-4fb454286996{fill:#c5f4fc;}.\39 3af911d-d0d8-411f-9179-360597883158{fill:#374d65;}.\34 3ebbc3b-12e0-466b-9dfd-ff81d08f014b{fill:#fefefe;}</style></defs><title>5</title><path class="42edb8d7-0463-4b09-9b43-f5e29f772606" d="M863.66,382.68a2.29,2.29,0,0,0,2.57-2.8,1.5,1.5,0,0,1,.83-1.65l1.58-.85a1.52,1.52,0,0,1,1.88.2,2.36,2.36,0,0,0,2.53.56,2.74,2.74,0,0,0,1.31-1.25,1.51,1.51,0,0,1,1.69-.83l1.73,0.25a1.49,1.49,0,0,1,1.41,1.3,2.32,2.32,0,0,0,1.86,1.91,2.64,2.64,0,0,0,1.61-.28,1.61,1.61,0,0,1,1.93.25c0.45,0.41.91,0.83,1.33,1.28a1.52,1.52,0,0,1,.31,1.75c-0.72,1.79,0,3.08,1.88,3.47a1.44,1.44,0,0,1,1.25,1.24c0.11,0.61.23,1.21,0.34,1.81a1.51,1.51,0,0,1-.76,1.69,2.29,2.29,0,0,0-.5,3.88,1.47,1.47,0,0,1,.28,1.74c-0.27.57-.55,1.14-0.83,1.7a1.49,1.49,0,0,1-1.58.87,2.31,2.31,0,0,0-2.7,2.84,1.49,1.49,0,0,1-.76,1.55c-0.58.32-1.16,0.63-1.75,0.94a1.49,1.49,0,0,1-1.76-.21,3.29,3.29,0,0,0-.87-0.56,2.19,2.19,0,0,0-2.9,1.05,1.75,1.75,0,0,1-2.13,1c-0.51-.09-1-0.14-1.55-0.22a1.44,1.44,0,0,1-1.25-1.19,2.33,2.33,0,0,0-2-2,2.68,2.68,0,0,0-1.51.28,1.61,1.61,0,0,1-2-.28c-0.44-.41-0.88-0.82-1.3-1.25a1.5,1.5,0,0,1-.32-1.75,2.72,2.72,0,0,0,.2-1.84,2.27,2.27,0,0,0-1.84-1.58,1.59,1.59,0,0,1-1.54-1.62c-0.09-.51-0.19-1-0.28-1.54a1.45,1.45,0,0,1,.75-1.63,2.38,2.38,0,0,0,1.34-2.18,2.59,2.59,0,0,0-.77-1.64,1.47,1.47,0,0,1-.28-1.93l0.64-1.32A1.57,1.57,0,0,1,863.66,382.68Z" transform="translate(-860.11 -370.15)"/><path class="42edb8d7-0463-4b09-9b43-f5e29f772606" d="M890.74,371.27a1.19,1.19,0,0,1,.58.18,2.15,2.15,0,0,0,3.12-.76,1.12,1.12,0,0,1,1.25-.51c0.39,0.07.78,0.12,1.17,0.18a0.85,0.85,0,0,1,.75.63,4.35,4.35,0,0,0,.24.62,2,2,0,0,0,2.25,1.25,5.39,5.39,0,0,0,.56-0.08,0.57,0.57,0,0,1,.46.05,4.21,4.21,0,0,1,1.42,1.94,0.8,0.8,0,0,1-.14.58c-0.7,1.42-.51,2.28.77,3.18a1,1,0,0,1,.49,1.13c-0.07.44-.13,0.87-0.2,1.31a0.84,0.84,0,0,1-.55.66l-0.49.17a2,2,0,0,0-1.43,2.53,1.15,1.15,0,0,1-.59,1.4,0.7,0.7,0,0,0-.15.11,1.78,1.78,0,0,1-2.32.38c-1-.53-1.88-0.19-2.61.84a1.16,1.16,0,0,1-1.4.57,0.75,0.75,0,0,0-.19,0,1.81,1.81,0,0,1-1.91-1.37,1.92,1.92,0,0,0-2.5-1.23,1.07,1.07,0,0,1-1.28-.51,1,1,0,0,0-.11-0.15,1.83,1.83,0,0,1-.42-2.39c0.53-1,.18-1.82-0.85-2.56a1.36,1.36,0,0,1-.59-1.44,2,2,0,0,1,1.5-2.08,1.8,1.8,0,0,0,1.16-2.31,1.23,1.23,0,0,1,.64-1.5,6.93,6.93,0,0,0,.8-0.58A0.82,0.82,0,0,1,890.74,371.27Z" transform="translate(-860.11 -370.15)"/><path class="76e6ea89-73f3-413f-84eb-fe7713cd141c" d="M882.12,401.42c0.22,0.52-.18.72-0.61,1a1.6,1.6,0,0,1-2,0,3.57,3.57,0,0,0-5.13,1.36,0.62,0.62,0,0,1-.67.31,1.92,1.92,0,0,1-2-1.42c-0.74-1.87-2.86-2.52-4.84-1.7a0.6,0.6,0,0,1-.82-0.14l0,0a1.63,1.63,0,0,1-.73-2.07,3.52,3.52,0,0,0-2.83-4.44,0.64,0.64,0,0,1-.56-0.61,1.87,1.87,0,0,1,.67-2.26,3.47,3.47,0,0,0,.2-5.14,0.5,0.5,0,0,1-.09-0.72,0.29,0.29,0,0,0,0-.09,1.77,1.77,0,0,1,1.89-1.41,3.4,3.4,0,0,0,3.19-3.63,1.22,1.22,0,0,1,.75-1.3,1.48,1.48,0,0,1,1.81,0,3.6,3.6,0,0,0,5.2-1.26,0.57,0.57,0,0,1,.75-0.33,0.47,0.47,0,0,0,.14,0,1.63,1.63,0,0,1,1.76,1.21,3.56,3.56,0,0,0,4.93,1.87,0.64,0.64,0,0,1,.86.16l0,0a1.61,1.61,0,0,1,.72,2,3.51,3.51,0,0,0,2.76,4.48,0.75,0.75,0,0,1,.63.65,1.82,1.82,0,0,1-.68,2.21,3.46,3.46,0,0,0-.22,5.14,0.6,0.6,0,0,1,.11.77,2,2,0,0,1-1.9,1.48C883.3,397.67,882.11,399.26,882.12,401.42Z" transform="translate(-860.11 -370.15)"/><path class="e93ae0b9-378e-4c56-b9a6-4fb454286996" d="M901,374.93l-0.16.44a3.37,3.37,0,0,0,1,4,0.64,0.64,0,0,1-.16,1.18,3.4,3.4,0,0,0-2.2,3.47c0,0.86-.27,1.07-1.1.79a3.48,3.48,0,0,0-4,1.15,0.64,0.64,0,0,1-1.08-.16,3.39,3.39,0,0,0-3.66-2.25,0.66,0.66,0,0,1-.72-1,3.39,3.39,0,0,0-1.06-4.13,0.63,0.63,0,0,1,.15-1.11,3.38,3.38,0,0,0,2.25-3.66,0.64,0.64,0,0,1,1-.68,3.44,3.44,0,0,0,4.15-1,0.65,0.65,0,0,1,1.16.17,3.47,3.47,0,0,0,3.8,2.18A0.8,0.8,0,0,1,901,374.93Z" transform="translate(-860.11 -370.15)"/><path class="42edb8d7-0463-4b09-9b43-f5e29f772606" d="M868,390.77a6.94,6.94,0,1,1,6.73,6.91A6.91,6.91,0,0,1,868,390.77Z" transform="translate(-860.11 -370.15)"/><path class="93af911d-d0d8-411f-9179-360597883158" d="M894.85,382.33a3.4,3.4,0,0,1-3.44-3.46,3.44,3.44,0,0,1,6.89.06A3.4,3.4,0,0,1,894.85,382.33Z" transform="translate(-860.11 -370.15)"/><path class="43ebbc3b-12e0-466b-9dfd-ff81d08f014b" d="M874.93,396.24a5.44,5.44,0,1,1,5.49-5.43A5.46,5.46,0,0,1,874.93,396.24Z" transform="translate(-860.11 -370.15)"/><path class="76e6ea89-73f3-413f-84eb-fe7713cd141c" d="M894.86,380.88a2,2,0,0,1-2-2,2,2,0,0,1,4-.05A2,2,0,0,1,894.86,380.88Z" transform="translate(-860.11 -370.15)"/></svg>