<svg xmlns="http://www.w3.org/2000/svg" xmlns:xlink="http://www.w3.org/1999/xlink" height="88" viewBox="0 0 138 88" width="138"><svg height="35.4" viewBox="0 0 44 36" width="43.58" x="5" y="5"><defs><style>.\34 2edb8d7-0463-4b09-9b43-f5e29f772606{fill:#374d64}.\37 6e6ea89-73f3-413f-84eb-fe7713cd141c{fill:#fdfdfd}.e93ae0b9-378e-4c56-b9a6-4fb454286996{fill:#c5f4fc}.\39 3af911d-d0d8-411f-9179-360597883158{fill:#374d65}.\34 3ebbc3b-12e0-466b-9dfd-ff81d08f014b{fill:#fefefe}</style></defs><title>5</title><path class="42edb8d7-0463-4b09-9b43-f5e29f772606" d="M3.55 12.53a2.29 2.29 0 0 0 2.57-2.8 1.5 1.5 0 0 1 .83-1.65l1.58-.85a1.52 1.52 0 0 1 1.88.2 2.36 2.36 0 0 0 2.53.56 2.74 2.74 0 0 0 1.31-1.25 1.51 1.51 0 0 1 1.69-.83l1.73.25a1.49 1.49 0 0 1 1.41 1.3 2.32 2.32 0 0 0 1.86 1.91 2.64 2.64 0 0 0 1.61-.28 1.61 1.61 0 0 1 1.93.25c.45.41.91.83 1.33 1.28a1.52 1.52 0 0 1 .31 1.75c-.72 1.79 0 3.08 1.88 3.47a1.44 1.44 0 0 1 1.25 1.24c.11.61.23 1.21.34 1.81a1.51 1.51 0 0 1-.76 1.69 2.29 2.29 0 0 0-.5 3.88 1.47 1.47 0 0 1 .28 1.74c-.27.57-.55 1.14-.83 1.7a1.49 1.49 0 0 1-1.58.87 2.31 2.31 0 0 0-2.7 2.84 1.49 1.49 0 0 1-.76 1.55c-.58.32-1.16.63-1.75.94a1.49 1.49 0 0 1-1.76-.21 3.29 3.29 0 0 0-.87-.56 2.19 2.19 0 0 0-2.9 1.05 1.75 1.75 0 0 1-2.13 1c-.51-.09-1-.14-1.55-.22a1.44 1.44 0 0 1-1.25-1.19 2.33 2.33 0 0 0-2-2 2.68 2.68 0 0 0-1.51.28 1.61 1.61 0 0 1-2-.28c-.44-.41-.88-.82-1.3-1.25a1.5 1.5 0 0 1-.32-1.75 2.72 2.72 0 0 0 .2-1.84 2.27 2.27 0 0 0-1.84-1.58 1.59 1.59 0 0 1-1.54-1.62c-.09-.51-.19-1-.28-1.54a1.45 1.45 0 0 1 .75-1.63 2.38 2.38 0 0 0 1.34-2.18 2.59 2.59 0 0 0-.77-1.64 1.47 1.47 0 0 1-.28-1.93l.64-1.32a1.57 1.57 0 0 1 1.93-1.16z"/><path class="42edb8d7-0463-4b09-9b43-f5e29f772606" d="M30.63 1.12a1.19 1.19 0 0 1 .58.18 2.15 2.15 0 0 0 3.12-.76 1.12 1.12 0 0 1 1.25-.51c.39.07.78.12 1.17.18a.85.85 0 0 1 .75.63 4.35 4.35 0 0 0 .24.62 2 2 0 0 0 2.25 1.25 5.39 5.39 0 0 0 .56-.08.57.57 0 0 1 .46.05 4.21 4.21 0 0 1 1.42 1.94.8.8 0 0 1-.14.58c-.7 1.42-.51 2.28.77 3.18a1 1 0 0 1 .49 1.13c-.07.44-.13.87-.2 1.31a.84.84 0 0 1-.55.66l-.49.17a2 2 0 0 0-1.43 2.53 1.15 1.15 0 0 1-.59 1.4.7.7 0 0 0-.15.11 1.78 1.78 0 0 1-2.32.38c-1-.53-1.88-.19-2.61.84a1.16 1.16 0 0 1-1.4.57.75.75 0 0 0-.19 0 1.81 1.81 0 0 1-1.91-1.37 1.92 1.92 0 0 0-2.5-1.23 1.07 1.07 0 0 1-1.28-.51 1 1 0 0 0-.11-.15 1.83 1.83 0 0 1-.42-2.39c.53-1 .18-1.82-.85-2.56a1.36 1.36 0 0 1-.59-1.44 2 2 0 0 1 1.5-2.08 1.8 1.8 0 0 0 1.16-2.31 1.23 1.23 0 0 1 .64-1.5 6.93 6.93 0 0 0 .8-.58.82.82 0 0 1 .57-.24z"/><path class="76e6ea89-73f3-413f-84eb-fe7713cd141c" d="M22.01 31.27c.22.52-.18.72-.61 1a1.6 1.6 0 0 1-2 0 3.57 3.57 0 0 0-5.13 1.36.62.62 0 0 1-.67.31 1.92 1.92 0 0 1-2-1.42c-.74-1.87-2.86-2.52-4.84-1.7a.6.6 0 0 1-.82-.14 1.63 1.63 0 0 1-.73-2.07 3.52 3.52 0 0 0-2.83-4.44.64.64 0 0 1-.56-.61 1.87 1.87 0 0 1 .67-2.26 3.47 3.47 0 0 0 .2-5.14.5.5 0 0 1-.09-.72.29.29 0 0 0 0-.09 1.77 1.77 0 0 1 1.89-1.41 3.4 3.4 0 0 0 3.19-3.63 1.22 1.22 0 0 1 .75-1.3 1.48 1.48 0 0 1 1.81 0 3.6 3.6 0 0 0 5.2-1.26.57.57 0 0 1 .75-.33.47.47 0 0 0 .14 0 1.63 1.63 0 0 1 1.76 1.21 3.56 3.56 0 0 0 4.93 1.87.64.64 0 0 1 .86.16 1.61 1.61 0 0 1 .72 2 3.51 3.51 0 0 0 2.76 4.48.75.75 0 0 1 .63.65 1.82 1.82 0 0 1-.68 2.21 3.46 3.46 0 0 0-.22 5.14.6.6 0 0 1 .11.77 2 2 0 0 1-1.9 1.48c-2.11.13-3.3 1.72-3.29 3.88z"/><path class="e93ae0b9-378e-4c56-b9a6-4fb454286996" d="M40.89 4.78l-.16.44a3.37 3.37 0 0 0 1 4 .64.64 0 0 1-.16 1.18 3.4 3.4 0 0 0-2.2 3.47c0 .86-.27 1.07-1.1.79a3.48 3.48 0 0 0-4 1.15.64.64 0 0 1-1.08-.16 3.39 3.39 0 0 0-3.66-2.25.66.66 0 0 1-.72-1 3.39 3.39 0 0 0-1.06-4.13.63.63 0 0 1 .15-1.11 3.38 3.38 0 0 0 2.25-3.66.64.64 0 0 1 1-.68 3.44 3.44 0 0 0 4.15-1 .65.65 0 0 1 1.16.17 3.47 3.47 0 0 0 3.8 2.18.8.8 0 0 1 .63.61z"/><path class="42edb8d7-0463-4b09-9b43-f5e29f772606" d="M7.89 20.62a6.94 6.94 0 1 1 6.73 6.91 6.91 6.91 0 0 1-6.73-6.91z"/><path class="93af911d-d0d8-411f-9179-360597883158" d="M34.74 12.18a3.4 3.4 0 0 1-3.44-3.46 3.445 3.445 0 0 1 6.89.06 3.4 3.4 0 0 1-3.45 3.4z"/><path class="43ebbc3b-12e0-466b-9dfd-ff81d08f014b" d="M14.82 26.09a5.44 5.44 0 1 1 5.49-5.43 5.46 5.46 0 0 1-5.49 5.43z"/><path class="76e6ea89-73f3-413f-84eb-fe7713cd141c" d="M34.75 10.73a2 2 0 0 1-2-2 2 2 0 0 1 4-.05 2 2 0 0 1-2 2.05z"/></svg><svg height="37.24" viewBox="0 0 42 38" width="41.07" x="5" y="46"><defs><style>.\35 9e54c63-bd76-4098-9c94-e8f803b73534{fill:#374d64}.aa539997-929a-40b5-9a35-0e2cbac777ea{fill:#c6f4fc}.c59195ec-e3f5-4a21-879d-3b8f6809c8e4{fill:#fdfdfd}</style></defs><title>2</title><path class="59e54c63-bd76-4098-9c94-e8f803b73534" d="M29.03 19.1h-2.12a.38.38 0 0 0-.45.38 6.12 6.12 0 0 1-5.06 5.07 5.57 5.57 0 0 1-3.11-.23.38.38 0 0 0-.56.2c-.7 1.21-1.42 2.41-2.16 3.59-.19.31-.1.43.13.64a4.81 4.81 0 0 1-1.4 8.14 4.83 4.83 0 0 1-6.34-6 4.63 4.63 0 0 1 3.92-3.31 4.32 4.32 0 0 1 1.82.1.42.42 0 0 0 .57-.21c.72-1.24 1.46-2.46 2.21-3.68a.33.33 0 0 0-.09-.53 6.22 6.22 0 0 1-.49-9.39.35.35 0 0 0 .07-.52 223.4 223.4 0 0 1-2.2-3.68.42.42 0 0 0-.59-.16 4.83 4.83 0 1 1 2.92-7.36 4.77 4.77 0 0 1-.86 6.27.47.47 0 0 0-.1.75q1 1.64 2 3.31a.32.32 0 0 0 .5.17 6.25 6.25 0 0 1 8.82 4.53.42.42 0 0 0 .5.43h4.11a.41.41 0 0 0 .49-.4 4.83 4.83 0 1 1 0 2.21.36.36 0 0 0-.43-.35c-.71.04-1.4.03-2.1.03z"/><path class="59e54c63-bd76-4098-9c94-e8f803b73534" d="M32.86 4.85a4.83 4.83 0 1 1-4.85-4.86 4.86 4.86 0 0 1 4.85 4.86zM23.68 31.85a4.82 4.82 0 1 1 4.8 4.84 4.82 4.82 0 0 1-4.8-4.84zM4.79 23.67a4.83 4.83 0 1 1 4.82-4.82 4.81 4.81 0 0 1-4.82 4.82z"/><path class="aa539997-929a-40b5-9a35-0e2cbac777ea" d="M15.47 18.36a4.82 4.82 0 1 1 4.72 4.83 4.8 4.8 0 0 1-4.72-4.83zM32.86 18.33a3.39 3.39 0 0 1 6.77 0 3.39 3.39 0 1 1-6.77 0zM12.55 35.75a3.37 3.37 0 1 1 3.39-3.38 3.37 3.37 0 0 1-3.39 3.38zM12.08 1.46a3.37 3.37 0 1 1-3.39 3.39 3.39 3.39 0 0 1 3.39-3.39z"/><path class="c59195ec-e3f5-4a21-879d-3b8f6809c8e4" d="M28.02 8.2a3.37 3.37 0 1 1 3.39-3.33 3.36 3.36 0 0 1-3.39 3.33zM28.48 28.53a3.37 3.37 0 1 1-3.36 3.45 3.38 3.38 0 0 1 3.36-3.45zM4.79 22.23a3.39 3.39 0 1 1 3.41-3.32 3.41 3.41 0 0 1-3.41 3.32z"/></svg><svg height="32.56" viewBox="0 0 40 33" width="39.08" x="54" y="5"><defs><style>.\39 254b946-8542-4ba7-91e2-9d4dbce157bc{fill:#374d64}.\31 b2876c0-ee7a-4edf-94d0-d99cb64e3692{fill:#fdfdfd}.a818b87c-17b0-4e5f-a250-4a1414e43de9{fill:#c6f4fc}</style></defs><title>1</title><path class="9254b946-8542-4ba7-91e2-9d4dbce157bc" d="M19.54 0h17.49a1.86 1.86 0 0 1 2 2.06v24.31a1.88 1.88 0 0 1-2 2h-12.9c-.36 0-.46.09-.45.45v2c0 .28.08.36.36.36h3a.7.7 0 0 1 .85.71.68.68 0 0 1-.83.68H12.02a.71.71 0 1 1 0-1.39h3a.29.29 0 0 0 .36-.36v-2c0-.36-.11-.45-.46-.45h-13a1.84 1.84 0 0 1-1.91-1.92V1.96a1.88 1.88 0 0 1 2.1-2h17.45z"/><path class="1b2876c0-ee7a-4edf-94d0-d99cb64e3692" d="M19.52 21.84H1.85c-.39 0-.47-.11-.47-.48V2.1c0-.56.15-.71.69-.71h34.71c.85 0 .91.07.91.94v19c0 .41-.09.53-.52.53H19.5zM19.59 23.26h17.63c.36 0 .46.1.45.45v2.54c0 .59-.14.73-.72.73H2.22c-.68 0-.8-.12-.8-.78v-2.54c0-.32.1-.4.41-.4h17.8zM19.5 31.17h-2.4c-.27 0-.37-.07-.36-.35v-2.13a.25.25 0 0 1 .3-.31h5a.25.25 0 0 1 .31.3v2.18c0 .28-.12.32-.35.31h-2.49z"/><path class="9254b946-8542-4ba7-91e2-9d4dbce157bc" d="M22.22 12.06a7.37 7.37 0 0 1 3 2.36 7.1 7.1 0 0 1 1.48 4.3.71.71 0 0 1-.8.82H13.22a.74.74 0 0 1-.84-.91 7.28 7.28 0 0 1 4.58-6.59 4.37 4.37 0 0 1-1.64-4.21 4.16 4.16 0 0 1 1.57-2.68 4.29 4.29 0 0 1 5.84.43c1.66 1.82 1.49 4.17-.51 6.48z"/><path class="a818b87c-17b0-4e5f-a250-4a1414e43de9" d="M19.53 18.11h-5.31c-.4 0-.45-.14-.38-.47a5.82 5.82 0 0 1 11.41 0c.08.38 0 .49-.41.49-1.77-.03-3.54-.02-5.31-.02zM22.45 8.57a2.915 2.915 0 1 1-5.83-.08 2.915 2.915 0 0 1 5.83.08z"/></svg><svg height="39.01" viewBox="0 0 39 40" width="38.09" x="54" y="43"><defs><style>.\38 ecc6b9e-ac48-4ed9-9d23-3a2729cfceaf{fill:#374d64}.f11c40ec-8373-4920-9458-6c087249a30c{fill:#374d65}.\38 ae6c3e2-68e1-496f-9de1-190fc039e3fd{fill:#fff}.\30 cee3ed3-3d15-40c8-a7fd-a5d5109c50c5{fill:#c6f4fc}</style></defs><title>4</title><path class="8ecc6b9e-ac48-4ed9-9d23-3a2729cfceaf" d="M36.63 25.24v-5.69a17 17 0 0 0-2.17-7.82c-.11-.21-.18-.32-.47-.18a2.58 2.58 0 0 1-3.28-.79 13.64 13.64 0 0 0-8.55-5.25 14.7 14.7 0 0 0-14.48 5.12 2.8 2.8 0 0 1-3.53.86c-.25-.14-.29.05-.36.18a17.36 17.36 0 0 0-2 5.32 18.71 18.71 0 0 0-.33 3.69v6.61c0 .74-.21 1.07-.69 1.08s-.72-.33-.72-1.05v-7.16a18.22 18.22 0 0 1 2.72-9.48 1 1 0 0 0 .13-.85 2.46 2.46 0 0 1 .58-2.34 20.37 20.37 0 0 1 27.08-4 18.8 18.8 0 0 1 4.38 4.14 2.53 2.53 0 0 1 .43 2.42.51.51 0 0 0 0 .46 18.87 18.87 0 0 1 2.59 7.76 53.49 53.49 0 0 1 .11 5.55v7a6.07 6.07 0 0 1-6.25 6.3h-7.85a.42.42 0 0 0-.54.4 1.82 1.82 0 0 1-1.88 1.49h-4.54a1.88 1.88 0 0 1-2-2v-1.28a1.83 1.83 0 0 1 1.76-1.87h5a1.79 1.79 0 0 1 1.7 1.53.3.3 0 0 0 .35.33h8.17a5.09 5.09 0 0 0 4.67-4.77v-2.84-2.84z"/><path class="f11c40ec-8373-4920-9458-6c087249a30c" d="M2.84 23.96v-6a1.87 1.87 0 0 1 2-2h3.49a1.88 1.88 0 0 1 2 2V29.93a1.89 1.89 0 0 1-2 2H4.75A1.84 1.84 0 0 1 2.82 30c.01-2 .02-4.02.02-6.04z"/><path class="8ecc6b9e-ac48-4ed9-9d23-3a2729cfceaf" d="M35.24 23.99v6a1.88 1.88 0 0 1-2 2h-3.48a1.9 1.9 0 0 1-2-2.06V18.06a1.91 1.91 0 0 1 2.07-2h3.39a1.89 1.89 0 0 1 2.06 2q-.03 2.95-.04 5.93z"/><path class="8ae6c3e2-68e1-496f-9de1-190fc039e3fd" d="M19.84 1.42a17.89 17.89 0 0 1 13.84 6.93 1.18 1.18 0 0 1-.06 1.78 1.26 1.26 0 0 1-1.82-.27 15.22 15.22 0 0 0-10.62-5.94 16.18 16.18 0 0 0-14.5 5.66c-.14.16-.27.34-.42.48a1.24 1.24 0 0 1-1.67 0 1.15 1.15 0 0 1-.11-1.64 18.45 18.45 0 0 1 4.71-4.17 19.61 19.61 0 0 1 10.65-2.83zM19.23 37.58h-2.15a.52.52 0 0 1-.63-.63v-1.1a.52.52 0 0 1 .58-.59h4.48a.52.52 0 0 1 .58.6v1.1a.52.52 0 0 1-.63.63h-2.24z"/><path class="0cee3ed3-3d15-40c8-a7fd-a5d5109c50c5" d="M8.93 24.01v5.78c0 .63-.12.76-.74.76H4.93c-.54 0-.69-.15-.7-.67V18.05a.55.55 0 0 1 .66-.66h3.39c.5 0 .64.15.64.67v6zM33.85 24.01v5.78c0 .63-.13.76-.74.76h-3.26a.57.57 0 0 1-.72-.7v-8.11-3.67c0-.55.14-.67.68-.68h3.3c.58 0 .71.15.71.75v5.87z"/></svg><svg height="30.36" viewBox="0 0 35 31" width="34.4" x="98" y="5"><defs><style>.\34 21c43a0-4f4d-4604-ac4b-2a8c74c6a73d{fill:#374d64}.b4c05b62-dce7-486a-9369-40f44fb1e8e8{fill:#fdfdfd}.afbe92ec-546b-45e4-93e4-74cefce3b721{fill:#c6f4fc}.f10abd48-0356-4d06-8510-d3a8e683fe18{fill:#374d65}</style></defs><title>6</title><path class="421c43a0-4f4d-4604-ac4b-2a8c74c6a73d" d="M17.24 0h15.17a1.82 1.82 0 0 1 2 2v26.52a1.79 1.79 0 0 1-1.85 1.8H1.99a1.79 1.79 0 0 1-2-2V1.85A1.79 1.79 0 0 1 1.92-.08h15.3z"/><path class="b4c05b62-dce7-486a-9369-40f44fb1e8e8" d="M17.21 6.7h15.35c.41 0 .49.12.49.51v21.14c0 .57-.12.68-.69.69s-.84 0-1.26 0-.35-.06-.31-.34a7.85 7.85 0 0 0 0-1.78 1.48 1.48 0 0 0-1-1.36 2.09 2.09 0 0 1-1.49-1.76 2.37 2.37 0 0 1 .42-1.52 1.37 1.37 0 0 0-.06-1.77l-.89-1.23a1.39 1.39 0 0 0-1.57-.57 2.72 2.72 0 0 1-1 .11 2 2 0 0 1-1.85-2 1.46 1.46 0 0 0-1.25-1.59l-1.37-.44a1.34 1.34 0 0 0-1.5.42c-.11.12-.21.25-.32.36a2 2 0 0 1-3 0c-.1-.1-.19-.22-.29-.33a1.41 1.41 0 0 0-.73-.45 5.76 5.76 0 0 0-3.06 1 1.59 1.59 0 0 0-.31.89 2.06 2.06 0 0 1-2.81 2 1.41 1.41 0 0 0-1.63.6c-.29.43-.61.85-.92 1.27a1.36 1.36 0 0 0 0 1.63c.92 1.49.51 2.7-1.12 3.38a1.43 1.43 0 0 0-.94 1.3 11.09 11.09 0 0 0 0 1.87c0 .22 0 .28-.26.28H2.05c-.54 0-.67-.12-.67-.66v-10.2-11c0-.34.08-.43.43-.43h15.43z"/><path class="afbe92ec-546b-45e4-93e4-74cefce3b721" d="M26.08 29.03h-2.27c-.25 0-.32-.07-.28-.33a6.212 6.212 0 0 0-12.22-2.24 5.69 5.69 0 0 0 0 2.17c.06.3 0 .4-.33.4h-4.4a3.56 3.56 0 0 1-1.09-.4.18.18 0 0 1-.09-.14v-1.53a.36.36 0 0 1 .33-.24 3.41 3.41 0 0 0 2.14-2.51 3.47 3.47 0 0 0-.51-2.54.41.41 0 0 1 0-.53 1.78 1.78 0 0 1 1.94-1.06 3.08 3.08 0 0 0 3.47-2.91.87.87 0 0 1 .67-.79 1.47 1.47 0 0 1 1.8.34 3.22 3.22 0 0 0 4.76-.37.47.47 0 0 1 .66-.17.44.44 0 0 0 .13 0 1.47 1.47 0 0 1 1.35 1.39 3.16 3.16 0 0 0 3.85 2.47.85.85 0 0 1 1 .4 1.43 1.43 0 0 1 .24 1.77 3.22 3.22 0 0 0 1.79 4.42.61.61 0 0 1 .45.71 4.21 4.21 0 0 0 0 .44 1.05 1.05 0 0 1-1.26 1.21h-2.14zM17.2 5.36H1.9c-.47 0-.58-.14-.56-.58V2.03c0-.6.11-.71.71-.71h30.16c.74 0 .81.07.81.83V4.9c0 .37-.11.45-.46.45H17.2z"/><path class="b4c05b62-dce7-486a-9369-40f44fb1e8e8" d="M17.42 29.03h-4.27a.44.44 0 0 1-.51-.43 4.88 4.88 0 1 1 9.58-.07.48.48 0 0 1-.57.5c-1.41-.02-2.82 0-4.23 0z"/><path class="f10abd48-0356-4d06-8510-d3a8e683fe18" d="M24.78 2.24a1.08 1.08 0 0 1 1.12 1.08 1.11 1.11 0 1 1-2.21 0 1.08 1.08 0 0 1 1.09-1.08zM31.02 2.24a1.09 1.09 0 0 1 1.13 1.07 1.1 1.1 0 0 1-1.11 1.14 1.08 1.08 0 0 1-1.1-1.1 1.06 1.06 0 0 1 1.08-1.11zM29.02 3.36a1.1 1.1 0 1 1-1.08-1.12 1.08 1.08 0 0 1 1.08 1.12z"/></svg><svg height="33.03" viewBox="0 0 33 34" width="32.58" x="98" y="41"><defs><style>.\32 a073cf4-37ed-4ea6-97a2-9047540e2aca{fill:#374d64}.b3777ce0-0cd8-4825-a08c-010efb7aba8d{fill:#fff}.f9e8827d-9f1f-428a-b517-f639c6465599{fill:#c6f4fc}.db13d105-93e0-44c9-b4ca-7b9baeb8c9ea{fill:#fbfcfc}.\32 6e7ca79-ef86-4155-810b-7a4e9e4b328b{fill:#fcfcfc}.\37 954e1e4-071f-4473-bf1a-34512920c608{fill:#384d65}.\39 f2f2d64-488a-4e49-8f5b-ec12124735b7{fill:#374d65}</style></defs><title>3</title><path class="2a073cf4-37ed-4ea6-97a2-9047540e2aca" d="M16.24 33.03H2.01a1.8 1.8 0 0 1-2-2V12.82a1.82 1.82 0 0 1 2-2h2c.68 0 .57.07.57-.59V2.01a1.81 1.81 0 0 1 2-2h19.49a1.8 1.8 0 0 1 2 2v8.4c0 .36.08.48.45.47h2.16a1.79 1.79 0 0 1 1.91 1.91v18.38a1.79 1.79 0 0 1-1.89 1.89H16.24z"/><path class="b3777ce0-0cd8-4825-a08c-010efb7aba8d" d="M30.27 31.66h-28l.4-.51 6.78-8.38a.83.83 0 0 0 .28-.71.65.65 0 0 0-.48-.53.7.7 0 0 0-.78.28l-2.69 3.33-4.4 5.43V13.18a1 1 0 0 1 .41.28L14.2 23.57a3 3 0 0 0 4.16 0l12.32-10 .52-.42v17.32a.25.25 0 0 1-.21-.18l-6.7-8.28c-.43-.53-.82-.66-1.18-.38s-.34.67.11 1.23L30 31.24a.89.89 0 0 1 .27.42z"/><path class="f9e8827d-9f1f-428a-b517-f639c6465599" d="M16.29 1.36h9.68c.63 0 .74.11.74.74v12.59a.64.64 0 0 1-.26.56l-9.1 7.44a1.6 1.6 0 0 1-2.14 0l-9.09-7.44a.64.64 0 0 1-.26-.56V2.05c0-.58.12-.7.7-.7h9.72z"/><path class="db13d105-93e0-44c9-b4ca-7b9baeb8c9ea" d="M2.43 12.22h1.88c.18 0 .22.09.21.25v1.46z"/><path class="26e7ca79-ef86-4155-810b-7a4e9e4b328b" d="M30.14 12.23l-2.09 1.7v-1.52a.16.16 0 0 1 .18-.19h1.91z"/><path class="7954e1e4-071f-4473-bf1a-34512920c608" d="M16.31 6.33h5.48a.74.74 0 0 1 .85.59.72.72 0 0 1-.84.78H10.9a2 2 0 0 1-.48 0 .61.61 0 0 1-.49-.61.64.64 0 0 1 .43-.65 1.28 1.28 0 0 1 .52-.06h5.43z"/><path class="9f2f2d64-488a-4e49-8f5b-ec12124735b7" d="M16.28 12.23h-5.43a.85.85 0 0 1-.79-.3.62.62 0 0 1-.07-.67.67.67 0 0 1 .64-.4h11.26a.68.68 0 0 1 .77.67.69.69 0 0 1-.76.68h-5.61z"/><path class="2a073cf4-37ed-4ea6-97a2-9047540e2aca" d="M16.3 16.75h-4.68a.69.69 0 0 1-.7-1 .65.65 0 0 1 .62-.35h9.5a.66.66 0 0 1 .72.66.68.68 0 0 1-.72.67H16.3z"/></svg></svg>